HIERARCHY
ROOT Hips
{
	OFFSET 0.000000 0.000000 0.000000
	CHANNELS 6 Xposition Yposition Zposition Zrotation Yrotation Xrotation 
	JOINT LHipJoint
	{
		OFFSET 0.000000 0.000000 0.000000
		CHANNELS 3 Zrotation Yrotation Xrotation
		JOINT LeftUpLeg
		{
			OFFSET 1.363060 -1.794630 0.839290
			CHANNELS 3 Zrotation Yrotation Xrotation
			JOINT LeftLeg
			{
				OFFSET 2.448110 -6.726130 0.000000
				CHANNELS 3 Zrotation Yrotation Xrotation
				JOINT LeftFoot
				{
					OFFSET 2.562200 -7.039590 0.000000
					CHANNELS 3 Zrotation Yrotation Xrotation
					JOINT LeftToeBase
					{
						OFFSET 0.157640 -0.433110 2.322550
						CHANNELS 3 Zrotation Yrotation Xrotation
						End Site
						{
							OFFSET 0.000000 0.000000 0.000000
						}
					}
				}
			}
		}
	}
	JOINT RHipJoint
	{
		OFFSET 0.000000 0.000000 0.000000
		CHANNELS 3 Zrotation Yrotation Xrotation
		JOINT RightUpLeg
		{
			OFFSET -1.305520 -1.794630 0.839290
			CHANNELS 3 Zrotation Yrotation Xrotation
			JOINT RightLeg
			{
				OFFSET -2.542530 -6.985550 0.000000
				CHANNELS 3 Zrotation Yrotation Xrotation
				JOINT RightFoot
				{
					OFFSET -2.568260 -7.056230 0.000000
					CHANNELS 3 Zrotation Yrotation Xrotation
					JOINT RightToeBase
					{
						OFFSET -0.164730 -0.452590 2.363150
						CHANNELS 3 Zrotation Yrotation Xrotation
						End Site
						{
							OFFSET 0.000000 0.000000 0.000000
						}
					}
				}
			}
		}
	}
	JOINT LowerBack
	{
		OFFSET 0.000000 0.000000 0.000000
		CHANNELS 3 Zrotation Yrotation Xrotation
		JOINT Spine
		{
			OFFSET 0.028270 2.035590 -0.193380
			CHANNELS 3 Zrotation Yrotation Xrotation
			JOINT Spine1
			{
				OFFSET 0.056720 2.048850 -0.042750
				CHANNELS 3 Zrotation Yrotation Xrotation
				JOINT Neck
				{
					OFFSET 0.000000 0.000000 0.000000
					CHANNELS 3 Zrotation Yrotation Xrotation
					JOINT Neck1
					{
						OFFSET -0.054170 1.746240 0.172020
						CHANNELS 3 Zrotation Yrotation Xrotation
						JOINT Head
						{
							OFFSET 0.104070 1.761360 -0.123970
							CHANNELS 3 Zrotation Yrotation Xrotation
							End Site
							{
								OFFSET 0.000000 0.000000 0.000000
							}
						}
					}
				}
				JOINT LeftShoulder
				{
					OFFSET 0.000000 0.000000 0.000000
					CHANNELS 3 Zrotation Yrotation Xrotation
					JOINT LeftArm
					{
						OFFSET 3.362410 1.200890 -0.311210
						CHANNELS 3 Zrotation Yrotation Xrotation
						JOINT LeftForeArm
						{
							OFFSET 4.983000 -0.000000 -0.000000
							CHANNELS 3 Zrotation Yrotation Xrotation
							JOINT LeftHand
							{
								OFFSET 3.483560 -0.000000 -0.000000
								CHANNELS 3 Zrotation Yrotation Xrotation
								JOINT LeftFingerBase
								{
									OFFSET 0.000000 0.000000 0.000000
									CHANNELS 3 Zrotation Yrotation Xrotation
									JOINT LeftHandIndex1
									{
										OFFSET 0.715260 -0.000000 -0.000000
										CHANNELS 3 Zrotation Yrotation Xrotation
										End Site
										{
											OFFSET 0.000000 0.000000 0.000000
										}
									}
								}
								JOINT LThumb
								{
									OFFSET 0.000000 0.000000 0.000000
									CHANNELS 3 Zrotation Yrotation Xrotation
									End Site
									{
										OFFSET 0.000000 0.000000 0.000000
									}
								}
							}
						}
					}
				}
				JOINT RightShoulder
				{
					OFFSET 0.000000 0.000000 0.000000
					CHANNELS 3 Zrotation Yrotation Xrotation
					JOINT RightArm
					{
						OFFSET -3.136600 1.374050 -0.404650
						CHANNELS 3 Zrotation Yrotation Xrotation
						JOINT RightForeArm
						{
							OFFSET -5.241900 -0.000000 -0.000000
							CHANNELS 3 Zrotation Yrotation Xrotation
							JOINT RightHand
							{
								OFFSET -3.444170 -0.000000 -0.000000
								CHANNELS 3 Zrotation Yrotation Xrotation
								JOINT RightFingerBase
								{
									OFFSET 0.000000 0.000000 0.000000
									CHANNELS 3 Zrotation Yrotation Xrotation
									JOINT RightHandIndex1
									{
										OFFSET -0.622530 -0.000000 -0.000000
										CHANNELS 3 Zrotation Yrotation Xrotation
										End Site
										{
											OFFSET 0.000000 0.000000 0.000000
										}
									}
								}
								JOINT RThumb
								{
									OFFSET 0.000000 0.000000 0.000000
									CHANNELS 3 Zrotation Yrotation Xrotation
									End Site
									{
										OFFSET 0.000000 0.000000 0.000000
									}
								}
							}
						}
					}
				}
			}
		}
	}
}
MOTION
Frames: 12
Frame Time: 0.008333
0.434326 17.443318 1.801186 -39.369442 -72.377672 60.787251 -12.766719 -4.540233 -2.253477 2.649683 -9.578616 -28.591585 0.121694 0.210440 14.833681 1.432486 7.949385 -3.704507 0.669900 -0.000001 -29.733500 4.504176 4.182779 2.582498 -6.240017 -5.030854 -109.109154 1.852874 -5.151076 42.500526 -1.180246 -5.324694 10.788014 -2.608300 -0.000000 -72.110700 10.161657 -1.344859 5.555204 0.811201 -1.673270 -2.340563 -7.698327 -1.828229 -1.234602 12.684999 1.768251 -0.171770 -3.569053 -0.311230 1.733824 0.000000 0.000000 0.000000 -6.954307 -8.370674 2.774710 -64.837705 -23.492548 13.853201 -2.738751 -29.975260 -0.009326 5.210029 -5.330775 -0.256705 -0.097233 0.218365 0.000000 0.000000 0.000000 0.000000 0.000000 0.000000 0.000000 16.783066 1.476261 2.363792 61.977873 12.724329 -9.303455 2.727561 24.679013 0.005739 -3.139724 11.161992 -0.317687 0.069565 -0.158997 0.000000 0.000000 0.000000 0.000000 0.000000 0.000000 0.000000 
0.438316 17.438639 1.809615 -38.891158 -72.398590 60.669038 -12.767539 -4.598290 -2.351222 2.545035 -9.599585 -28.899254 0.103092 0.210618 14.831486 1.409413 7.789409 -3.700479 0.657100 0.000000 -29.668800 4.611097 4.049848 2.994450 -6.618727 -5.226895 -107.020916 2.330453 -4.376763 36.342050 -1.188296 -5.508636 10.971793 -2.793800 -0.000000 -72.380800 10.026308 -1.340133 5.359311 0.777908 -1.676038 -2.381746 -7.718461 -1.829955 -1.218035 12.864293 1.724095 -0.161797 -3.583493 -0.312359 1.735402 0.000000 0.000000 0.000000 -6.805653 -8.334922 2.738232 -65.193895 -23.227831 13.997677 -2.732223 -29.970321 -0.009172 5.201377 -5.347444 -0.257005 -0.096791 0.216894 0.000000 0.000000 0.000000 0.000000 0.000000 0.000000 0.000000 17.017695 1.389211 2.337703 62.020456 12.678637 -9.640501 2.703688 24.906114 0.005513 -3.171323 11.224767 -0.322488 0.068446 -0.158922 0.000000 0.000000 0.000000 0.000000 0.000000 0.000000 0.000000 
0.441019 17.434537 1.817961 -38.435613 -72.381430 60.524986 -12.768195 -4.651433 -2.449923 2.451676 -9.593647 -29.141848 0.084225 0.210746 14.807764 1.382216 7.605354 -3.697079 0.641700 0.000001 -29.622300 4.695568 3.948315 3.385992 -6.953280 -5.393271 -104.524426 2.736365 -3.453539 29.721359 -1.205772 -5.764526 11.225025 -3.005900 0.000001 -72.756300 9.906194 -1.343119 5.178015 0.749943 -1.685059 -2.419192 -7.742001 -1.838174 -1.201763 13.046909 1.684128 -0.148363 -3.600072 -0.313653 1.738024 0.000000 0.000000 0.000000 -6.648553 -8.305575 2.702691 -65.549770 -22.925941 14.123864 -2.726792 -29.911062 -0.009024 5.203450 -5.368192 -0.257906 -0.096324 0.215046 0.000000 0.000000 0.000000 0.000000 0.000000 0.000000 0.000000 17.261709 1.299673 2.308722 62.071592 12.618995 -9.951950 2.683320 25.096818 0.005344 -3.188053 11.290304 -0.325889 0.067304 -0.158482 0.000000 0.000000 0.000000 0.000000 0.000000 0.000000 0.000000 
0.442409 17.431018 1.825678 -37.974093 -72.309604 60.291067 -12.763950 -4.693398 -2.542293 2.362246 -9.566846 -29.291857 0.063827 0.211124 14.766886 1.349881 7.391891 -3.696483 0.622700 0.000000 -29.595700 4.747871 3.899875 3.715642 -7.241103 -5.557844 -101.562676 3.029931 -2.400750 22.700438 -1.230801 -6.098155 11.571627 -3.241300 0.000000 -73.211200 9.802330 -1.359000 5.035762 0.728520 -1.704360 -2.446034 -7.769254 -1.856901 -1.186000 13.239326 1.647350 -0.127654 -3.618373 -0.315111 1.742594 0.000000 0.000000 0.000000 -6.474015 -8.290903 2.667511 -65.906898 -22.588775 14.234106 -2.722874 -29.788756 -0.008873 5.215041 -5.391432 -0.259407 -0.095839 0.212806 0.000000 0.000000 0.000000 0.000000 0.000000 0.000000 0.000000 17.518653 1.204195 2.275767 62.133438 12.542512 -10.243696 2.665719 25.247633 0.005224 -3.188573 11.355786 -0.327690 0.066074 -0.157595 0.000000 0.000000 0.000000 0.000000 0.000000 0.000000 0.000000 
0.442244 17.427960 1.832189 -37.472040 -72.166064 59.894830 -12.751418 -4.716714 -2.618165 2.269436 -9.525551 -29.319878 0.040321 0.212383 14.715650 1.311030 7.140566 -3.702501 0.598900 0.000000 -29.589700 4.761306 3.923512 3.933042 -7.481172 -5.746806 -98.109248 3.175989 -1.277680 15.432716 -1.257872 -6.503893 12.034054 -3.493000 -0.000001 -73.630800 9.716023 -1.392923 4.961007 0.714625 -1.737929 -2.454096 -7.800149 -1.890041 -1.170355 13.446869 1.608266 -0.097649 -3.637808 -0.316699 1.749494 0.000000 0.000000 0.000000 -6.274641 -8.298558 2.632109 -66.265563 -22.221224 14.333477 -2.720991 -29.593896 -0.008713 5.233048 -5.414378 -0.261210 -0.095339 0.210161 0.000000 0.000000 0.000000 0.000000 0.000000 0.000000 0.000000 17.790386 1.095276 2.237842 62.209450 12.449274 -10.520198 2.650058 25.354998 0.005139 -3.174033 11.419377 -0.327892 0.064709 -0.156197 0.000000 0.000000 0.000000 0.000000 0.000000 0.000000 0.000000 
0.440102 17.425231 1.836238 -36.852778 -71.947364 59.223796 -12.721617 -4.710970 -2.667916 2.147265 -9.502451 -29.183700 0.011482 0.213544 14.647111 1.267112 6.864169 -3.714196 0.571700 0.000000 -29.596100 4.743401 4.030646 3.991671 -7.670504 -5.991938 -94.224648 3.164962 -0.186705 8.206389 -1.271677 -6.920996 12.609350 -3.732100 -0.000000 -73.968400 9.625080 -1.451908 4.980903 0.703437 -1.790964 -2.436382 -7.835089 -1.942585 -1.155421 13.679629 1.562167 -0.056355 -3.658235 -0.318416 1.759049 0.000000 0.000000 0.000000 -6.032267 -8.337909 2.596258 -66.625400 -21.823598 14.427531 -2.722530 -29.319695 -0.008523 5.252135 -5.432668 -0.262914 -0.094860 0.207072 0.000000 0.000000 0.000000 0.000000 0.000000 0.000000 0.000000 18.086240 0.965558 2.193579 62.308233 12.332526 -10.790573 2.634366 25.421033 0.005064 -3.145133 11.477966 -0.326394 0.063104 -0.154197 0.000000 0.000000 0.000000 0.000000 0.000000 0.000000 0.000000 
0.435580 17.422612 1.836922 -36.052954 -71.660751 58.200984 -12.669224 -4.670086 -2.686595 1.972273 -9.528966 -28.859664 -0.024536 0.213318 14.556039 1.220136 6.577877 -3.731969 0.542500 0.000001 -29.603400 4.710142 4.211191 3.872364 -7.766421 -6.308089 -90.081468 3.037418 0.762995 1.392672 -1.245979 -7.207376 13.231191 -3.893800 0.000000 -74.121600 9.504889 -1.539211 5.107495 0.688483 -1.865396 -2.390885 -7.873493 -2.016185 -1.140962 13.942540 1.500315 -0.005091 -3.679299 -0.320219 1.770725 0.000000 0.000000 0.000000 -5.735880 -8.412574 2.559618 -66.984539 -21.399767 14.524973 -2.728992 -28.961838 -0.008279 5.265758 -5.440662 -0.263719 -0.094450 0.203477 0.000000 0.000000 0.000000 0.000000 0.000000 0.000000 0.000000 18.409981 0.804981 2.142040 62.439330 12.189881 -11.060455 2.617357 25.447080 0.004984 -3.105210 11.530001 -0.323498 0.061222 -0.151548 0.000000 0.000000 0.000000 0.000000 0.000000 0.000000 0.000000 
0.428323 17.419904 1.833623 -35.039895 -71.327019 56.812809 -12.590936 -4.594062 -2.675341 1.726241 -9.635277 -28.352909 -0.068213 0.209327 14.434679 1.173809 6.307606 -3.752803 0.514400 -0.000000 -29.598300 4.681609 4.435539 3.596860 -7.677619 -6.698245 -85.955270 2.873797 1.502986 -4.639412 -1.148930 -7.141714 13.784002 -3.876400 0.000000 -74.096800 9.328092 -1.652369 5.327521 0.661906 -1.958476 -2.323000 -7.914049 -2.107782 -1.126381 14.235847 1.415884 0.053275 -3.700542 -0.322056 1.783702 0.000000 0.000000 0.000000 -5.381046 -8.519327 2.521641 -67.340682 -20.952827 14.633605 -2.741850 -28.521057 -0.007951 5.265870 -5.431751 -0.263124 -0.094155 0.199285 0.000000 0.000000 0.000000 0.000000 0.000000 0.000000 0.000000 18.760652 0.607464 2.082751 62.611161 12.018726 -11.337218 2.598388 25.436624 0.004888 -3.058043 11.574677 -0.319603 0.059081 -0.148255 0.000000 0.000000 0.000000 0.000000 0.000000 0.000000 0.000000 
0.417947 17.416970 1.826548 -33.851053 -70.971296 55.153451 -12.489628 -4.490632 -2.637338 1.413929 -9.824259 -27.721130 -0.118139 0.199441 14.288573 1.131048 6.070417 -3.774861 0.489500 0.000000 -29.575001 4.671329 4.665073 3.223911 -7.325223 -7.149577 -82.119771 2.748074 2.032856 -9.659298 -0.966572 -6.555277 14.167731 -3.604800 0.000000 -73.990700 9.082406 -1.780410 5.597204 0.619187 -2.061246 -2.244739 -7.955195 -2.208172 -1.109438 14.552980 1.304514 0.114177 -3.721438 -0.323887 1.796981 0.000000 0.000000 0.000000 -4.977984 -8.644570 2.481347 -67.689299 -20.488168 14.761363 -2.761923 -28.002961 -0.007510 5.243937 -5.399133 -0.260330 -0.094012 0.194398 0.000000 0.000000 0.000000 0.000000 0.000000 0.000000 0.000000 19.130394 0.373009 2.015914 62.827257 11.816607 -11.625646 2.578239 25.394341 0.004778 -3.007621 11.611207 -0.315109 0.056793 -0.144409 0.000000 0.000000 0.000000 0.000000 0.000000 0.000000 0.000000 
0.404367 17.413707 1.816474 -32.536746 -70.711659 53.509781 -12.392569 -4.414977 -2.665667 1.055021 -10.080816 -27.118593 -0.173322 0.184464 14.125211 1.092823 5.869004 -3.799873 0.467800 -0.000000 -29.540200 4.746877 4.693724 3.122882 -7.270362 -7.460258 -82.082700 2.872484 1.842327 -7.602565 -0.451248 -5.264235 10.887068 -3.112200 -0.000000 -73.933500 8.715229 -1.885163 5.739916 0.534196 -2.145293 -2.214771 -7.994525 -2.288977 -1.087527 14.876604 1.164773 0.166327 -3.742909 -0.325661 1.807825 0.000000 0.000000 0.000000 -4.544197 -8.745200 2.437825 -68.026275 -20.006515 14.916203 -2.790715 -27.420671 -0.006908 5.191484 -5.336768 -0.254537 -0.094098 0.188453 0.000000 0.000000 0.000000 0.000000 0.000000 0.000000 0.000000 19.506558 0.102647 1.942182 63.095849 11.583643 -11.927771 2.562625 25.325585 0.004724 -2.958169 11.640658 -0.310415 0.054741 -0.140041 0.000000 0.000000 0.000000 0.000000 0.000000 0.000000 0.000000 
0.387300 17.410023 1.804322 -31.253239 -70.471619 51.935267 -12.290839 -4.334715 -2.674694 0.693692 -10.344873 -26.579618 -0.229088 0.164331 13.991347 1.057704 5.683175 -3.836887 0.447400 -0.000000 -29.499600 4.836069 4.674904 3.057916 -7.141837 -7.717542 -82.681723 3.080067 1.497744 -4.179281 -0.032093 -3.723896 7.241203 -2.523400 -0.000000 -74.002900 8.305692 -1.970538 5.821543 0.437938 -2.213020 -2.198984 -8.031992 -2.352628 -1.056562 15.197715 0.996603 0.211399 -3.762916 -0.327414 1.817277 0.000000 0.000000 0.000000 -4.108289 -8.821910 2.389635 -68.342146 -19.522232 15.104438 -2.825735 -26.783112 -0.006173 5.101690 -5.239366 -0.245543 -0.094333 0.181742 0.000000 0.000000 0.000000 0.000000 0.000000 0.000000 0.000000 19.872198 -0.189746 1.862827 63.403867 11.321036 -12.246618 2.549675 25.231380 0.004692 -2.913801 11.664265 -0.306222 0.052906 -0.135521 0.000000 0.000000 0.000000 0.000000 0.000000 0.000000 0.000000 
0.367094 17.405986 1.790337 -30.075589 -70.246255 50.481220 -12.180874 -4.241673 -2.639136 0.343530 -10.591449 -26.125407 -0.283301 0.139166 13.896627 1.027302 5.520839 -3.885198 0.429200 -0.000000 -29.458800 4.925911 4.657408 2.962157 -6.931137 -7.909532 -82.691708 3.262522 1.219482 -1.583637 0.191896 -2.324866 4.495544 -1.974600 -0.000000 -74.252400 7.873071 -2.033824 5.857224 0.339729 -2.261015 -2.186570 -8.067358 -2.395773 -1.015948 15.509013 0.803800 0.249555 -3.780908 -0.329189 1.825543 0.000000 0.000000 0.000000 -3.684222 -8.875039 2.336556 -68.625050 -19.036330 15.318749 -2.865447 -26.111651 -0.005330 4.968321 -5.102890 -0.232849 -0.094648 0.174398 0.000000 0.000000 0.000000 0.000000 0.000000 0.000000 0.000000 20.219831 -0.491625 1.780031 63.745710 11.032808 -12.584456 2.538372 25.112411 0.004672 -2.878508 11.684373 -0.302829 0.051298 -0.131100 0.000000 0.000000 0.000000 0.000000 0.000000 0.000000 0.000000 
